<?xml version="1.0" encoding="iso-8859-1"?>
<!-- Generator: Adobe Illustrator 19.0.0, SVG Export Plug-In . SVG Version: 6.00 Build 0)  -->
<svg version="1.1" id="Layer_1" xmlns="http://www.w3.org/2000/svg" xmlns:xlink="http://www.w3.org/1999/xlink" x="0px" y="0px"
	 viewBox="0 0 297 297" style="enable-background:new 0 0 297 297;" xml:space="preserve">
<g>
	<g>
		<g>
			<g>
				<g>
					<g>
						<circle style="fill:#F5DB91;" cx="148.5" cy="148.5" r="148.5"/>
					</g>
				</g>
			</g>
		</g>
	</g>
	<path style="fill:#D6B769;" d="M290.704,105.619l-48.807-48.807L68.712,233.189l62.843,62.843
		c5.562,0.632,11.214,0.968,16.945,0.968c82.014,0,148.5-66.486,148.5-148.5C297,133.589,294.793,119.196,290.704,105.619z"/>
	<g>
		<path style="fill:#79302A;" d="M87.429,220.664h120.378c4.14,0,7.497-3.356,7.497-7.496V108.51c0-4.14-3.356-7.496-7.497-7.496
			H87.429c-4.14,0-7.496,3.356-7.496,7.496v104.657C79.933,217.307,83.289,220.664,87.429,220.664z"/>
	</g>
	<g>
		<path style="fill:#662621;" d="M207.807,101.013h-61.141v119.651h61.141c4.14,0,7.497-3.356,7.497-7.497V108.51
			C215.304,104.369,211.948,101.013,207.807,101.013z"/>
	</g>
	<g>
		<rect x="134.782" y="101.013" style="fill:#F4AF30;" width="25.674" height="51.348"/>
	</g>
	<g>
		<rect x="146.667" y="101.013" style="fill:#DD931D;" width="13.788" height="51.348"/>
	</g>
	<g>
		<path style="fill:#32373B;" d="M249.212,73.972c0-13.128-10.681-23.809-23.81-23.809c-13.128,0-23.809,10.681-23.809,23.809
			c0,11.94,8.834,21.852,20.309,23.55v120.975H74.501c-4.695,0-8.501,3.806-8.501,8.501l0,0c0,4.695,3.806,8.501,8.501,8.501
			h154.444c4.695,0,8.501-3.806,8.501-8.501l0,0c0-4.695-3.806-8.501-8.501-8.501h-0.043V97.522
			C240.377,95.824,249.212,85.911,249.212,73.972z M208.594,73.972c0-9.269,7.54-16.809,16.809-16.809s16.81,7.54,16.81,16.809
			c0,8.068-5.716,14.822-13.31,16.437v-1.796c0-1.933-1.567-3.5-3.5-3.5s-3.5,1.567-3.5,3.5v1.796
			C214.309,88.793,208.594,82.04,208.594,73.972z"/>
		<circle style="fill:#FFFFFF;" cx="225.403" cy="73.972" r="17.5"/>
	</g>
	<g>
		<path style="fill:#32373B;" d="M225.402,78.889c-1.933,0-3.5-1.567-3.5-3.5V64.525c0-1.933,1.567-3.5,3.5-3.5s3.5,1.567,3.5,3.5
			v10.863C228.902,77.321,227.335,78.889,225.402,78.889z"/>
	</g>
</g>
<g>
</g>
<g>
</g>
<g>
</g>
<g>
</g>
<g>
</g>
<g>
</g>
<g>
</g>
<g>
</g>
<g>
</g>
<g>
</g>
<g>
</g>
<g>
</g>
<g>
</g>
<g>
</g>
<g>
</g>
</svg>
