<svg xmlns="http://www.w3.org/2000/svg" xmlns:xlink="http://www.w3.org/1999/xlink" version="1.1" width="1000" height="1000" viewBox="0 0 1000 1000" xml:space="preserve">
<desc>Created with Fabric.js 3.5.0</desc>
<defs>
</defs>
<g transform="matrix(-1.8717 0 0 1.8717 499.994 499.994)" id="837685">
<g style="" vector-effect="non-scaling-stroke">
		<g transform="matrix(1 0 0 1 -0.0005 0.0002)" id="Capa_1">
<path style="stroke: none; stroke-width: 1; stroke-dasharray: none; stroke-linecap: butt; stroke-dashoffset: 0; stroke-linejoin: miter; stroke-miterlimit: 4; is-custom-font: none; font-file-url: none; fill: rgb(0,0,0); fill-rule: nonzero; opacity: 1;" transform=" translate(-242.848, -242.8488)" d="M 485.026 304.412 c -2.3 -7.1 -10 -10.9 -17.1 -8.6 l -214.9 71.2 c -10.2 -16.5 -28.4 -27.4 -49.2 -27.4 c -0.8 0 -1.6 0 -2.4 0 c -1 0 -2.1 0.1 -3.1 0.2 l -85.3 -256.9 c -1.1 -3.4 -3.6 -6.2 -6.8 -7.8 l -86.7 -43.6 c -6.7 -3.3 -14.8 -0.7 -18.1 6 s -0.7 14.8 6 18.1 l 81.8 41.1 l 83.5 252 c -4.2 2.7 -8.1 5.9 -11.6 9.7 c -10.5 11.4 -15.9 26.2 -15.3 41.6 c 1.3 31.2 26.7 55.6 57.9 55.6 c 0.8 0 1.6 0 2.4 0 c 31.9 -1.3 56.8 -28.3 55.5 -60.3 c 0 -0.8 -0.1 -1.7 -0.2 -2.5 l 215 -71.2 C 483.526 319.212 487.326 311.512 485.026 304.412 z M 205.026 428.512 c -17.2 0.7 -31.5 -12.6 -32.2 -29.6 c -0.3 -8.3 2.6 -16.2 8.2 -22.2 c 5.6 -6.1 13.2 -9.6 21.5 -9.9 c 0.4 0 0.9 0 1.3 0 c 16.6 0 30.2 13 30.9 29.7 C 235.326 413.412 222.026 427.812 205.026 428.512 z" stroke-linecap="round"/>
</g>
		<g transform="matrix(1 0 0 1 68.0695 -57.6637)" id="Capa_1">
<path style="stroke: none; stroke-width: 1; stroke-dasharray: none; stroke-linecap: butt; stroke-dashoffset: 0; stroke-linejoin: miter; stroke-miterlimit: 4; is-custom-font: none; font-file-url: none; fill: rgb(0,0,0); fill-rule: nonzero; opacity: 1;" transform=" translate(-310.918, -185.1848)" d="M 228.426 326.712 c 1.9 5.7 7.2 9.3 12.8 9.3 c 1.4 0 2.8 -0.2 4.2 -0.7 l 207.6 -68.8 c 3.4 -1.1 6.2 -3.6 7.8 -6.8 c 1.6 -3.2 1.9 -6.9 0.8 -10.3 l -68.1 -205.8 c -1.1 -3.4 -3.6 -6.2 -6.8 -7.8 c -3.2 -1.6 -6.9 -1.9 -10.3 -0.8 l -103.8 34.5 l 0 0 l 0 0 l -103.8 34.4 c -7.1 2.3 -10.9 10 -8.6 17.1 L 228.426 326.712 z M 268.326 99.312 l 16.5 49.9 c 1.9 5.7 7.2 9.3 12.8 9.3 c 1.4 0 2.8 -0.2 4.2 -0.7 c 7.1 -2.3 10.9 -10 8.6 -17.1 l -16.5 -49.9 l 78.2 -25.9 l 59.7 180.2 l -182 60.3 l -59.7 -180.1 L 268.326 99.312 z" stroke-linecap="round"/>
</g>
</g>
</g>
</svg>