<?xml version='1.0' encoding='iso-8859-1'?>
<!DOCTYPE svg PUBLIC '-//W3C//DTD SVG 1.1//EN' 'http://www.w3.org/Graphics/SVG/1.1/DTD/svg11.dtd'>
<svg version="1.1" xmlns="http://www.w3.org/2000/svg" viewBox="0 0 512 512" xmlns:xlink="http://www.w3.org/1999/xlink" enable-background="new 0 0 512 512">
  <g>
    <path d="M496,48H351.992h-192H16C7.164,48,0,55.164,0,64v384c0,8.836,7.164,16,16,16h480c8.836,0,16-7.164,16-16V64   C512,55.164,504.836,48,496,48z M336,80v57.367l-20.688-20.68c-6.25-6.25-16.375-6.25-22.625,0l-36.695,36.688l-36.68-36.688   c-3-3-7.07-4.688-11.313-4.688c-4.242,0-8.313,1.688-11.313,4.688L176,137.375L175.992,80H336z M480,432H32V80h112v96   c0,6.477,3.902,12.305,9.879,14.781c5.984,2.461,12.869,1.109,17.439-3.469l36.681-36.68l36.68,36.68c3,3,7.071,4.688,11.313,4.688   c4.242,0,8.313-1.688,11.313-4.688L304,150.625l36.688,36.688C343.75,190.375,347.836,192,352,192c2.063,0,4.141-0.398,6.125-1.219   C364.102,188.305,368,182.469,368,176l-0.007-96H480V432z"/>
    <path d="m320,352h-128c-8.837,0-16,7.164-16,16s7.163,16 16,16h128c8.837,0 16-7.164 16-16s-7.163-16-16-16z"/>
    <path d="m288,288v16c0,8.836 7.164,16 16,16s16-7.164 16-16v-16c5.547,0 10.695-2.875 13.609-7.586 2.914-4.719 3.18-10.609 0.703-15.57l-16-32c-5.422-10.844-23.203-10.844-28.625,0l-16,32c-2.477,4.961-2.211,10.852 0.703,15.57 2.915,4.711 8.063,7.586 13.61,7.586z"/>
    <path d="m192,288v16c0,8.836 7.164,16 16,16 8.836,0 16-7.164 16-16v-16c5.547,0 10.695-2.875 13.609-7.586 2.914-4.719 3.18-10.609 0.703-15.57l-16-32c-5.422-10.844-23.203-10.844-28.625,0l-16,32c-2.477,4.961-2.211,10.852 0.703,15.57 2.915,4.711 8.063,7.586 13.61,7.586z"/>
  </g>
</svg>
