<?xml version="1.0" encoding="iso-8859-1"?>
<!-- Generator: Adobe Illustrator 19.0.0, SVG Export Plug-In . SVG Version: 6.00 Build 0)  -->
<svg version="1.1" id="Layer_1" xmlns="http://www.w3.org/2000/svg" xmlns:xlink="http://www.w3.org/1999/xlink" x="0px" y="0px"
	 viewBox="0 0 297.001 297.001" style="enable-background:new 0 0 297.001 297.001;" xml:space="preserve">
<g>
	<g>
		<g>
			<g>
				<circle style="fill:#345065;" cx="148.5" cy="148.5" r="148.5"/>
			</g>
		</g>
	</g>
	<path style="fill:#243F4F;" d="M296.964,145.634l-75.769-75.769L76.081,243.915l51.63,51.63c6.795,0.952,13.733,1.456,20.79,1.456
		c82.014,0,148.5-66.486,148.5-148.5C297,147.542,296.982,146.588,296.964,145.634z"/>
	<g>
		<path style="fill:#9ADAD9;" d="M211.92,247.5H85.08c-7.224,0-13.08-5.856-13.08-13.08V79.08C72,71.856,77.856,66,85.08,66h126.84
			c7.224,0,13.08,5.856,13.08,13.08v155.34C225,241.644,219.144,247.5,211.92,247.5z"/>
	</g>
	<g>
		<path style="fill:#86C4C1;" d="M211.92,66h-64.253v181.5h64.253c7.224,0,13.08-5.856,13.08-13.08V79.08
			C225,71.856,219.144,66,211.92,66z"/>
	</g>
	<g>
		<path style="fill:#17AB93;" d="M225,79.583C225,72.082,219.361,66,212.404,66H84.596C77.639,66,72,72.082,72,79.583v25.583h153
			V79.583z"/>
	</g>
	<path style="fill:#14967D;" d="M225,79.583C225,72.082,219.361,66,212.404,66h-64.737v39.167H225V79.583z"/>
	<g>
		<g>
			<circle style="fill:#D6F0EF;" cx="99" cy="132.25" r="8.25"/>
		</g>
		<g>
			<circle style="fill:#D6F0EF;" cx="132" cy="132.25" r="8.25"/>
		</g>
		<g>
			<circle style="fill:#D6F0EF;" cx="165" cy="132.25" r="8.25"/>
		</g>
		<g>
			<circle style="fill:#D6F0EF;" cx="198" cy="132.25" r="8.25"/>
		</g>
	</g>
	<g>
		<g>
			<circle style="fill:#D6F0EF;" cx="99" cy="159.75" r="8.25"/>
		</g>
		<g>
			<circle style="fill:#5B5869;" cx="132" cy="159.75" r="8.25"/>
		</g>
		<g>
			<circle style="fill:#D6F0EF;" cx="165" cy="159.75" r="8.25"/>
		</g>
		<g>
			<circle style="fill:#D6F0EF;" cx="198" cy="159.75" r="8.25"/>
		</g>
	</g>
	<g>
		<g>
			<circle style="fill:#D6F0EF;" cx="99" cy="187.25" r="8.25"/>
		</g>
		<g>
			<circle style="fill:#D6F0EF;" cx="132" cy="187.25" r="8.25"/>
		</g>
		<g>
			<circle style="fill:#5B5869;" cx="165" cy="187.25" r="8.25"/>
		</g>
		<g>
			<circle style="fill:#D6F0EF;" cx="198" cy="187.25" r="8.25"/>
		</g>
	</g>
	<g>
		<g>
			<circle style="fill:#D6F0EF;" cx="99" cy="214.75" r="8.25"/>
		</g>
		<g>
			<circle style="fill:#D6F0EF;" cx="132" cy="214.75" r="8.25"/>
		</g>
		<g>
			<circle style="fill:#D6F0EF;" cx="165" cy="214.75" r="8.25"/>
		</g>
		<g>
			<circle style="fill:#D6F0EF;" cx="198" cy="214.75" r="8.25"/>
		</g>
	</g>
	<g>
		<g>
			<path style="fill:#ECF0F1;" d="M101.158,84.904h-5.912c-2.621,0-4.746-2.125-4.746-4.746V58.842c0-2.621,2.125-4.746,4.746-4.746
				h5.912c2.621,0,4.746,2.125,4.746,4.746v21.317C105.904,82.78,103.78,84.904,101.158,84.904z"/>
		</g>
		<g>
			<path style="fill:#ECF0F1;" d="M201.754,84.904h-5.913c-2.621,0-4.746-2.125-4.746-4.746V58.842c0-2.621,2.125-4.746,4.746-4.746
				h5.913c2.621,0,4.746,2.125,4.746,4.746v21.317C206.5,82.78,204.375,84.904,201.754,84.904z"/>
		</g>
	</g>
</g>
<g>
</g>
<g>
</g>
<g>
</g>
<g>
</g>
<g>
</g>
<g>
</g>
<g>
</g>
<g>
</g>
<g>
</g>
<g>
</g>
<g>
</g>
<g>
</g>
<g>
</g>
<g>
</g>
<g>
</g>
</svg>
